<svg width="27" height="26" viewBox="0 0 27 26" fill="none" xmlns="http://www.w3.org/2000/svg">
<path d="M1.73782 1.97702L9.6765 9.9157M1.9629 8.15612C1.9629 8.15612 0.372391 3.34276 1.73723 1.97792C3.10306 0.612092 7.91692 2.20211 7.91692 2.20211M24.9726 1.97701L17.0339 9.91569M18.7935 2.2021C18.7935 2.2021 23.6068 0.611588 24.9717 1.97643C26.3375 3.34226 24.7475 8.15611 24.7475 8.15611M1.73782 23.8794L9.6765 15.9404M1.9629 17.7C1.9629 17.7 0.372391 22.5136 1.73723 23.8785C3.10306 25.2444 7.91692 23.6543 7.91692 23.6543M24.9726 23.8794L17.0339 15.9404M18.7935 23.6543C18.7935 23.6543 23.6068 25.2449 24.9717 23.88C26.3375 22.5141 24.7475 17.7 24.7475 17.7" stroke="url(#paint0_linear)" stroke-width="2" stroke-linecap="round" stroke-linejoin="round"/>
<defs>
<linearGradient id="paint0_linear" x1="24.9726" y1="23.8794" x2="17.0335" y2="15.9408" gradientUnits="userSpaceOnUse">
<stop stop-color="#31A4C8"/>
<stop offset="1" stop-color="#1B7794"/>
</linearGradient>
</defs>
</svg>
