<svg width="29" height="29" viewBox="0 0 29 29" fill="none" xmlns="http://www.w3.org/2000/svg">
<path fill-rule="evenodd" clip-rule="evenodd" d="M7.85718 6.88105C7.31944 7.37335 6.83666 7.7965 6.40824 8.1698C6.34751 8.2227 6.28811 8.27442 6.22995 8.32504C5.86615 8.64174 5.55124 8.91587 5.26843 9.17394C4.61337 9.7717 4.21373 10.2107 3.93377 10.6937C3.37318 11.6607 3.14998 13.0353 3.14998 16.7078C3.14998 19.3536 3.31058 21.2357 3.66664 22.5902C4.01448 23.9135 4.52534 24.6471 5.18551 25.1155C5.88391 25.6111 6.89768 25.9177 8.46665 26.0775C10.0332 26.2372 11.9904 26.2385 14.498 26.2385C17.0055 26.2385 18.9627 26.2372 20.5293 26.0775C22.0982 25.9177 23.112 25.6111 23.8104 25.1155C24.4706 24.6471 24.9814 23.9135 25.3293 22.5902C25.6853 21.2357 25.8459 19.3536 25.8459 16.7078C25.8459 13.0352 25.623 11.6605 25.0627 10.6935C24.7829 10.2106 24.3834 9.77159 23.7285 9.17387C23.4455 8.91555 23.1302 8.64111 22.766 8.324C22.7082 8.2737 22.6492 8.22232 22.5889 8.16976C22.1605 7.79647 21.6777 7.37331 21.14 6.88101C20.8174 6.62341 20.486 6.34708 20.1441 6.06197C19.4025 5.4435 18.6112 4.78368 17.7523 4.18387C16.4724 3.29007 15.3459 2.76143 14.4614 2.76143C13.5807 2.76143 12.4703 3.28953 11.2074 4.18458C10.3856 4.76707 9.6401 5.39489 8.93314 5.99028C8.56586 6.29959 8.20898 6.60015 7.85718 6.88105ZM9.87749 2.30809C11.186 1.3807 12.809 0.461426 14.4614 0.461426C16.1089 0.461426 17.7445 1.37308 19.0692 2.29817C20.0089 2.95441 20.9437 3.73312 21.7187 4.37876C22.0462 4.65161 22.3452 4.90069 22.604 5.10672C22.6249 5.12335 22.6452 5.1407 22.6649 5.15873C23.1926 5.64251 23.6676 6.05904 24.0999 6.43573C24.1584 6.48676 24.2164 6.53725 24.2739 6.58723C24.636 6.90244 24.9743 7.19701 25.279 7.47505C25.9858 8.12019 26.5941 8.74886 27.0527 9.54033C27.9692 11.122 28.1459 13.1228 28.1459 16.7078C28.1459 19.4023 27.9873 21.5255 27.5537 23.1749C27.1119 24.8556 26.3627 26.1246 25.1414 26.9913C23.9583 27.8308 22.4691 28.1918 20.7624 28.3657C19.0663 28.5385 16.9939 28.5385 14.5538 28.5385H14.4421C12.002 28.5385 9.92962 28.5385 8.23349 28.3657C6.52685 28.1918 5.03762 27.8308 3.85451 26.9913C2.63317 26.1246 1.88401 24.8556 1.44221 23.1749C1.00864 21.5255 0.849976 19.4023 0.849976 16.7078C0.849976 13.1227 1.02703 11.1218 1.94394 9.54014C2.40274 8.74871 3.01115 8.12009 3.71809 7.47499C4.02246 7.19723 4.36052 6.90298 4.72223 6.58814C4.78 6.53786 4.83837 6.48705 4.8973 6.4357C5.32962 6.05902 5.80466 5.64249 6.33233 5.15873C6.35207 5.14064 6.37244 5.12324 6.39339 5.10656C6.66331 4.89177 6.98213 4.62384 7.33368 4.32841C8.0848 3.69719 8.98532 2.94041 9.87749 2.30809ZM9.55749 19.8299C9.55749 19.1948 10.0724 18.6799 10.7075 18.6799H18.2889C18.9241 18.6799 19.4389 19.1948 19.4389 19.8299C19.4389 20.465 18.9241 20.9799 18.2889 20.9799H10.7075C10.0724 20.9799 9.55749 20.465 9.55749 19.8299Z" fill="white" fill-opacity="0.6"/>
</svg>
