<svg width="20" height="28" viewBox="0 0 20 28" fill="none" xmlns="http://www.w3.org/2000/svg">
<path fill-rule="evenodd" clip-rule="evenodd" d="M9.76997 26.3885C5.13542 26.3885 1.17761 25.643 1.17761 22.6573C1.17761 19.6716 5.11031 16.9154 9.76997 16.9154C14.4045 16.9154 18.3623 19.6449 18.3623 22.6306C18.3623 25.6151 14.4296 26.3885 9.76997 26.3885Z" stroke="white" stroke-opacity="0.6" stroke-width="2.3" stroke-linecap="round" stroke-linejoin="round"/>
<path fill-rule="evenodd" clip-rule="evenodd" d="M9.76087 12.778C12.8023 12.778 15.2673 10.2298 15.2673 7.08589C15.2673 3.94195 12.8023 1.39258 9.76087 1.39258C6.71948 1.39258 4.25327 3.94195 4.25327 7.08589C4.243 10.2192 6.69095 12.7674 9.72207 12.778C9.73577 12.778 9.74832 12.778 9.76087 12.778Z" stroke="white" stroke-opacity="0.6" stroke-width="2.3" stroke-linecap="round" stroke-linejoin="round"/>
</svg>
